# xmcd CD database file
#
# Track frame offsets:
#	187
#	24562
#	47137
#	71512
#
# Disc length: 1250 seconds
#
# Revision: 1
# Processed by: cddbd v1.5.2PL0 Copyright (c) Steve Scherf et al.
# Submitted via: CDex 1.70beta1
#
DISCID=2f04e004
DTITLE=MAX - Grace of my heart
DYEAR=1998
DGENRE=J-Pop
TTITLE0=Grace of my heart
TTITLE1=GETTING OVER
TTITLE2=Grace of my heart(original karaoke)
TTITLE3=GETTING OVER(original karaoke)
EXTD=YEAR: 1998
EXTT0=
EXTT1=
EXTT2=
EXTT3=
PLAYORDER=
